<?xml version="1.0" ?>
<!DOCTYPE svg  PUBLIC '-//W3C//DTD SVG 1.1//EN'  'http://www.w3.org/Graphics/SVG/1.1/DTD/svg11.dtd'>
<!-- Uploaded to: SVG Repo, www.svgrepo.com, Generator: SVG Repo Mixer Tools -->
<svg width="800px" height="800px" viewBox="0 0 50 50" enable-background="new 0 0 50 50" id="Layer_1" version="1.1" xml:space="preserve" xmlns="http://www.w3.org/2000/svg" xmlns:xlink="http://www.w3.org/1999/xlink">
<g>
<path d="M26.8063,25.48281l-2.64531,2.64531c-0.26694,0.26694-0.69975,0.26694-0.96669-0.00001v0   c-0.26678-0.26679-0.26695-0.69929-0.00038-0.96629l2.15892-2.16235l-2.1592-2.1592   c-0.26653-0.26653-0.267-0.69851-0.00105-0.96562l0.00171-0.00172c0.26677-0.26793,0.70038-0.26841,0.96773-0.00105   l2.64426,2.64426C27.07324,24.78308,27.07324,25.21587,26.8063,25.48281z" fill="#EC6E62"/>
<rect fill="#4E4C4D" height="2.57597" width="13.6075" x="4.2296" y="18.0796"/>
<rect fill="#4E4C4D" height="2.57597" width="13.6075" x="4.2296" y="29.34443"/>
<path d="M17.92555,20.65556H4.14113c-1.73481,0-3.14116,1.40635-3.14116,3.14116v2.40656   c0,1.73481,1.40634,3.14116,3.14116,3.14116h13.78443c1.73481,0,3.14116-1.40635,3.14116-3.14116v-2.40656   C21.06671,22.06191,19.66037,20.65556,17.92555,20.65556z" fill="#656766"/>
<path d="M17.92555,31.9204H4.14113c-1.73481,0-3.14116,1.40635-3.14116,3.14116v2.40656   c0,1.73481,1.40634,3.14116,3.14116,3.14116h13.78443c1.73481,0,3.14116-1.40635,3.14116-3.14116v-2.40656   C21.06671,33.32675,19.66037,31.9204,17.92555,31.9204z" fill="#656766"/>
<path d="M17.92555,9.39073H4.14113c-1.73481,0-3.14116,1.40634-3.14116,3.14116v2.40656   c0,1.73481,1.40634,3.14116,3.14116,3.14116h13.78443c1.73481,0,3.14116-1.40635,3.14116-3.14116v-2.40656   C21.06671,10.79707,19.66037,9.39073,17.92555,9.39073z" fill="#656766"/>
<circle cx="5.62787" cy="13.73517" fill="#85BD57" r="1.67212"/>
<circle cx="10.38022" cy="13.73517" fill="#FFC966" r="1.67212"/>
<circle cx="5.62787" cy="25" fill="#85BD57" r="1.67212"/>
<circle cx="10.38022" cy="25" fill="#FFC966" r="1.67212"/>
<circle cx="5.62787" cy="36.26483" fill="#85BD57" r="1.67212"/>
<circle cx="10.38022" cy="36.26483" fill="#FFC966" r="1.67212"/>
<rect fill="#D2D2D2" height="2.57597" width="13.6075" x="32.16286" y="18.0796"/>
<rect fill="#D2D2D2" height="2.57597" width="13.6075" x="32.16286" y="29.34443"/>
<path d="M45.85881,20.65556H32.07439c-1.73481,0-3.14116,1.40635-3.14116,3.14116v2.40656   c0,1.73481,1.40634,3.14116,3.14116,3.14116h13.78443c1.73481,0,3.14116-1.40635,3.14116-3.14116v-2.40656   C48.99997,22.06191,47.59363,20.65556,45.85881,20.65556z" fill="#E7E3E6"/>
<path d="M45.85881,31.9204H32.07439c-1.73481,0-3.14116,1.40635-3.14116,3.14116v2.40656   c0,1.73481,1.40634,3.14116,3.14116,3.14116h13.78443c1.73481,0,3.14116-1.40635,3.14116-3.14116v-2.40656   C48.99997,33.32675,47.59363,31.9204,45.85881,31.9204z" fill="#E7E3E6"/>
<path d="M45.85881,9.39073H32.07439c-1.73481,0-3.14116,1.40634-3.14116,3.14116v2.40656   c0,1.73481,1.40634,3.14116,3.14116,3.14116h13.78443c1.73481,0,3.14116-1.40635,3.14116-3.14116v-2.40656   C48.99997,10.79707,47.59363,9.39073,45.85881,9.39073z" fill="#E7E3E6"/>
<circle cx="33.56113" cy="13.73517" fill="#53B1E2" r="1.67212"/>
<circle cx="38.31348" cy="13.73517" fill="#F58634" r="1.67212"/>
<circle cx="33.56113" cy="25" fill="#53B1E2" r="1.67212"/>
<circle cx="38.31348" cy="25" fill="#F58634" r="1.67212"/>
<circle cx="33.56113" cy="36.26483" fill="#53B1E2" r="1.67212"/>
<circle cx="38.31348" cy="36.26483" fill="#F58634" r="1.67212"/>
</g>
</svg>